<svg width="17" height="22" viewBox="0 0 17 22" fill="none" xmlns="http://www.w3.org/2000/svg">
<path d="M4.75 5V3C4.75 2.46957 4.96071 1.96086 5.33579 1.58579C5.71086 1.21071 6.21957 1 6.75 1H10.75C11.2804 1 11.7891 1.21071 12.1642 1.58579C12.5393 1.96086 12.75 2.46957 12.75 3V5M15.75 5V19C15.75 19.5304 15.5393 20.0391 15.1642 20.4142C14.7891 20.7893 14.2804 21 13.75 21H3.75C3.21957 21 2.71086 20.7893 2.33579 20.4142C1.96071 20.0391 1.75 19.5304 1.75 19V5H15.75Z" stroke="#758A89" stroke-width="2" stroke-linecap="round" stroke-linejoin="round"/>
</svg>
