<svg width="24" height="25" viewBox="0 0 24 25" fill="none" xmlns="http://www.w3.org/2000/svg">
<path d="M14.12 14.8819C13.8454 15.1767 13.5141 15.4131 13.1462 15.577C12.7782 15.741 12.3809 15.8292 11.9781 15.8363C11.5753 15.8434 11.1752 15.7693 10.8016 15.6184C10.4281 15.4675 10.0887 15.2429 9.80385 14.9581C9.51897 14.6732 9.29439 14.3338 9.14351 13.9603C8.99262 13.5867 8.91853 13.1866 8.92563 12.7838C8.93274 12.381 9.02091 11.9837 9.18488 11.6158C9.34884 11.2478 9.58525 10.9166 9.88 10.6419M17.94 18.7019C16.2306 20.0049 14.1491 20.7268 12 20.7619C5 20.7619 1 12.7619 1 12.7619C2.24389 10.4438 3.96914 8.41851 6.06 6.8219L17.94 18.7019ZM9.9 5.0019C10.5883 4.84078 11.2931 4.76024 12 4.7619C19 4.7619 23 12.7619 23 12.7619C22.393 13.8975 21.6691 14.9666 20.84 15.9519L9.9 5.0019Z" stroke="#4FB233" stroke-width="2" stroke-linecap="round" stroke-linejoin="round"/>
<path d="M1 1.7619L23 23.7619" stroke="#4FB233" stroke-width="2" stroke-linecap="round" stroke-linejoin="round"/>
</svg>
